<svg xmlns="http://www.w3.org/2000/svg" viewBox="0 0 117.51 91.08"><defs><style>.cls-1{fill:#fff;}</style></defs><g id="Layer_2" data-name="Layer 2"><g id="Layer_1-2" data-name="Layer 1"><path class="cls-1" d="M16.13,75a9.48,9.48,0,0,1,0,13.37,9.1,9.1,0,0,1-6.68,2.76,9.13,9.13,0,0,1-6.69-2.76A9.48,9.48,0,0,1,2.76,75a9.13,9.13,0,0,1,6.69-2.76A9.1,9.1,0,0,1,16.13,75ZM9.45,76a5.44,5.44,0,0,0-4,1.64,5.6,5.6,0,0,0,0,7.94,5.41,5.41,0,0,0,4,1.65A5.62,5.62,0,0,0,9.45,76Z"/><path class="cls-1" d="M41.65,81.73a9.42,9.42,0,0,1-9.45,9.35A9.45,9.45,0,1,1,37.79,74V68.44a1.93,1.93,0,0,1,3.86,0Zm-3.84.3a1.88,1.88,0,0,1,0-.34V81a5.61,5.61,0,0,0-9.55-3.3,5.61,5.61,0,1,0,7.94,7.93A5.29,5.29,0,0,0,37.81,82Z"/><path class="cls-1" d="M64.41,89.23a1.67,1.67,0,0,1-.57,1.48,2.41,2.41,0,0,1-1.36.37,2.44,2.44,0,0,1-1.37-.37,1.62,1.62,0,0,1-.57-1.44A9.45,9.45,0,1,1,61.64,75a9.14,9.14,0,0,1,2.77,6.59ZM58.94,77.66a5.62,5.62,0,1,0,0,7.93,5.33,5.33,0,0,0,1.6-3.29v-.72c0-.11,0-.23,0-.34A5.29,5.29,0,0,0,58.94,77.66Z"/><path class="cls-1" d="M70.2,70.3a1.95,1.95,0,0,1-1.93-1.93A1.87,1.87,0,0,1,68.84,67a1.93,1.93,0,0,1,2.72,0,1.87,1.87,0,0,1,.57,1.37A1.95,1.95,0,0,1,70.2,70.3Zm0,20.78a1.83,1.83,0,0,1-1.36-.56,1.87,1.87,0,0,1-.57-1.37V74a1.93,1.93,0,0,1,3.86,0V89.15a1.87,1.87,0,0,1-.57,1.37A1.84,1.84,0,0,1,70.2,91.08Z"/><path class="cls-1" d="M75.86,68.44a1.93,1.93,0,0,1,3.86,0V74a9.47,9.47,0,1,1-3.86,7.72Zm5.47,17.17A5.59,5.59,0,1,0,79.72,81v.71a1.88,1.88,0,0,1,0,.34A5.29,5.29,0,0,0,81.33,85.61Z"/><path class="cls-1" d="M117.51,89.23a1.67,1.67,0,0,1-.57,1.48,2.68,2.68,0,0,1-2.72,0,1.62,1.62,0,0,1-.57-1.44,9.48,9.48,0,1,1,3.86-7.73ZM112,77.66a5.59,5.59,0,1,0,1.61,4.64v-.72a1.94,1.94,0,0,1,0-.34A5.31,5.31,0,0,0,112,77.66Z"/><path class="cls-1" d="M40.72,45.46c.13.18.26.36.41.54.43.51.89,1,1.38,1.51a19.32,19.32,0,0,0,14.28,5.91c.59,0,1.2,0,1.89-.09h.18l.17,0,.29,0,1.16-.16.76-.15.95-.23.83-.23.6-.21.16-.06a21.12,21.12,0,0,0,2.22-1l.09,0c.31-.16.66-.37,1-.59l.41-.25c.34-.22.68-.45,1-.69l.16-.11,2.39-1.79,0,3c0,.75.12,1.71.64,2.06a4.58,4.58,0,0,0,4.6,0c.55-.37.63-1.5.63-2.14V2.93A2.73,2.73,0,0,0,76.12.87h0A2.92,2.92,0,0,0,72,.86a2.77,2.77,0,0,0-.87,2.07V18.7l-2.59-1.92c-.33-.24-.67-.48-1-.7l-.41-.25c-.35-.21-.7-.42-1.06-.61a19.46,19.46,0,0,0-2.26-1l-.19-.07L63,14l-.79-.22c-.34-.1-.66-.17-1-.24s-.51-.11-.76-.15-.77-.12-1.16-.16l-.29,0-.17,0h-.18a21.58,21.58,0,0,0-3.77,0l-.4.05-.25,0c-.38,0-.77.09-1.15.16s-.51.09-.77.15-.63.14-1,.23l-.82.23c-.2.06-.4.14-.6.21l-.17.06a16.4,16.4,0,0,0-2.18.95l-.11.05c-.32.17-.67.38-1,.59l-.15.09-.27.16c-.34.22-.68.46-1,.7l-.15.11-2.4,1.78,0-3V2.93A2.76,2.76,0,0,0,41.61.86a2.92,2.92,0,0,0-4.14,0,2.77,2.77,0,0,0-.87,2.07V33.45l0,.57,0,.73c0,.21,0,.43,0,.64s0,.34.07.5l.08.6c0,.3.08.6.14.88a3.38,3.38,0,0,0,.08.34l.11.47c.09.36.17.73.27,1.08l.09.25c0,.1.08.19.11.29.16.48.29.88.45,1.26a2.4,2.4,0,0,0,.11.23l.13.27c.21.47.38.85.58,1.21a2.46,2.46,0,0,0,.17.27c.06.1.12.19.17.29l.12.2c.17.3.35.6.55.89s.22.3.33.44Zm1.75-12.1V32.2A14.37,14.37,0,0,1,56.79,18.86,14.37,14.37,0,0,1,71.11,32.2v2.14a14.18,14.18,0,0,1-1,4.33l-.17.39c-.09.2-.2.42-.31.64s-.25.5-.39.73l-.07.12A15.3,15.3,0,0,1,67,43.37a14.36,14.36,0,0,1-24.53-9.6V33.7Z"/><path class="cls-1" d="M61.59,28.88a1.54,1.54,0,0,0-1.54,1.54v2.14a1.54,1.54,0,1,0,3.08,0V30.42A1.54,1.54,0,0,0,61.59,28.88Z"/><path class="cls-1" d="M52,28.88a1.54,1.54,0,0,0-1.53,1.54v2.14a1.54,1.54,0,1,0,3.07,0V30.42A1.54,1.54,0,0,0,52,28.88Z"/></g></g></svg>