<svg xmlns="http://www.w3.org/2000/svg" viewBox="0 0 281.83 75.97"><defs><style>.cls-1{font-size:72px;font-family:Neon80s, "Neon 80s";}.cls-1,.cls-2{fill:#fff;}</style></defs><g id="Layer_2" data-name="Layer 2"><g id="Layer_1-2" data-name="Layer 1"><text class="cls-1" transform="translate(56.45 61.21)">odaiba</text><path class="cls-2" d="M39.51,9.66h0a2.9,2.9,0,0,0-4.14,0,2.73,2.73,0,0,0-.86,2.06V27.49l-2.59-1.92c-.33-.24-.67-.48-1-.7l-.42-.25c-.35-.21-.7-.42-1.06-.61a18.58,18.58,0,0,0-2.25-1L27,23l-.58-.2-.79-.22c-.35-.1-.66-.17-1-.24s-.51-.11-.77-.15S23.11,22,22.72,22l-.29,0-.17,0h-.19a21.58,21.58,0,0,0-3.77,0l-.4.05-.24,0c-.39,0-.78.09-1.16.16s-.51.09-.76.15-.64.14-1,.23l-.82.23-.61.21-.17.06A17.63,17.63,0,0,0,11,24L10.9,24c-.32.17-.67.38-1,.59l-.15.09-.27.16c-.34.22-.68.46-1,.7l-.15.11-2.4,1.78,0-3V11.72A2.74,2.74,0,0,0,5,9.66a2.77,2.77,0,0,0-2.07-.87,2.77,2.77,0,0,0-2.07.87A2.73,2.73,0,0,0,0,11.72V42.24c0,.18,0,.38,0,.57l0,.73c0,.21,0,.43,0,.64s0,.34.06.5l.09.6c0,.3.08.6.13.88,0,.12.06.23.08.34L.59,47c.08.36.16.73.27,1.08L1,48.3c0,.1.07.19.1.29.16.48.3.88.45,1.26a2.4,2.4,0,0,1,.11.23l.14.27c.21.47.38.85.58,1.22l.16.26.18.29.11.2c.18.3.35.6.55.89s.22.3.34.44l.44.6.41.54c.43.51.9,1,1.39,1.51a19.29,19.29,0,0,0,14.28,5.91c.58,0,1.2,0,1.88-.09h.19l.17,0,.28,0,1.17-.16.76-.15.95-.23.82-.23.6-.21.17-.06a18.32,18.32,0,0,0,2.21-1l.09,0c.31-.16.66-.37,1-.59l.42-.25c.34-.22.68-.45,1-.69l.15-.11,2.4-1.79,0,3c0,.75.11,1.71.64,2.06a4.56,4.56,0,0,0,4.59,0c.55-.37.64-1.5.64-2.14V11.72A2.74,2.74,0,0,0,39.51,9.66ZM15.79,41.94a1.94,1.94,0,0,1-2,1.84,1.94,1.94,0,0,1-2-1.84V39.36a1.94,1.94,0,0,1,2-1.84,1.94,1.94,0,0,1,2,1.84Zm12.6,0a2,2,0,0,1-4.06,0V39.36a2,2,0,0,1,4.06,0Z"/></g></g></svg>